<svg width="24" height="24" viewBox="0 0 24 24" fill="none" xmlns="http://www.w3.org/2000/svg">
<path d="M15.4773 18.6099C15.4773 17.3269 14.6693 16.5809 13.1203 15.2659C12.7703 14.9659 12.3923 14.6479 12.0023 14.2939C11.5573 14.7029 11.1343 15.0629 10.7463 15.3939C9.20032 16.6999 8.52332 17.3389 8.52332 18.6099C8.52332 19.5321 8.88964 20.4165 9.54171 21.0686C10.1938 21.7206 11.0782 22.0869 12.0003 22.0869C12.9225 22.0869 13.8069 21.7206 14.4589 21.0686C15.111 20.4165 15.4773 19.5321 15.4773 18.6099Z" fill="#4888FF" fill-opacity="0.5"/>
<path d="M16.4085 4.035C15.2085 3.016 13.9685 1.963 12.7145 0.71L12.0005 0L11.3005 0.711C9.04654 2.973 7.98054 6.447 7.51854 8.531C7.16403 7.98206 6.90094 7.37922 6.73954 6.746L6.31254 5.109L5.07954 6.266C2.92054 8.294 1.47954 10.305 1.47954 13.525C1.45878 15.8485 2.2151 18.1123 3.62833 19.9568C5.04156 21.8012 7.03064 23.1205 9.27954 23.705C9.84462 23.8482 10.42 23.9468 11.0005 24C9.74182 23.7654 8.60464 23.0983 7.78567 22.1141C6.96669 21.1299 6.51742 19.8904 6.51554 18.61C6.51554 16.36 7.87254 15.21 9.44354 13.868C10.0045 13.391 10.6435 12.85 11.2885 12.201L12.0005 11.493L12.7085 12.201C13.2845 12.777 13.8605 13.265 14.4175 13.739C15.9935 15.076 17.4815 16.339 17.4815 18.61C17.4799 19.8853 17.0343 21.1203 16.2211 22.1028C15.408 23.0853 14.2781 23.754 13.0255 23.994C15.6261 23.7417 18.0394 22.5298 19.7949 20.5946C21.5503 18.6594 22.5221 16.1398 22.5205 13.527C22.5205 9.225 19.6875 6.82 16.4085 4.035Z" fill="#4888FF" fill-opacity="0.5"/>
</svg>
