<svg width="24" height="24" viewBox="0 0 24 24" fill="none" xmlns="http://www.w3.org/2000/svg">
<g clip-path="url(#clip0_1_203)">
<path d="M23.8456 13.0687L22.082 10.2702C21.9423 10.0483 21.8951 9.78049 21.9505 9.52421L22.6507 6.29121C22.7599 5.78737 22.4684 5.28306 21.9776 5.12557L18.8277 4.11542C18.5781 4.03532 18.3698 3.86056 18.2475 3.62864L16.7057 0.702102C16.4656 0.245869 15.9182 0.0467717 15.4409 0.241594L12.3784 1.49265C12.1357 1.59155 11.8639 1.59155 11.6212 1.49265L8.5592 0.24183C8.08191 0.047007 7.53454 0.246104 7.29414 0.702337L5.75239 3.6286C5.63013 3.86052 5.42183 4.03528 5.17219 4.11538L2.02233 5.12553C1.53127 5.28302 1.24006 5.78737 1.34923 6.29117L2.04911 9.52418C2.10464 9.78045 2.05745 10.0483 1.91766 10.2701L0.154258 13.0687C-0.120681 13.5049 -0.0192702 14.0784 0.38814 14.3944L3.0024 16.421C3.2097 16.5816 3.34572 16.8172 3.38126 17.077L3.82926 20.3544C3.89887 20.8652 4.34534 21.2396 4.8602 21.2196L8.16559 21.0916C8.42762 21.0815 8.68318 21.1745 8.87751 21.3505L11.327 23.5731C11.7089 23.9194 12.2916 23.9194 12.6732 23.5731L15.1229 21.3505C15.3171 21.1742 15.5728 21.0813 15.8348 21.0916L19.14 21.2196C19.6553 21.2396 20.1013 20.865 20.1711 20.3544L20.6191 17.077C20.6547 16.8172 20.7906 16.5817 20.9978 16.421L23.612 14.3944C24.0194 14.0784 24.1206 13.5049 23.8456 13.0687ZM9.2248 15.9968L6.3058 13.958L7.50552 16.7385L6.70595 17.0835L4.86596 12.8201L5.70333 12.4585L8.67743 14.5526L7.44842 11.7055L8.24798 11.3602L10.0885 15.6239L9.2248 15.9968ZM10.9987 15.231L9.15868 10.9675L12.3201 9.6028L12.6311 10.3242L10.3304 11.3171L10.7383 12.2621L12.879 11.3381L13.189 12.0566L11.0483 12.9803L11.5491 14.1407L13.931 13.1128L14.241 13.8312L10.9987 15.231ZM18.2057 12.1207L15.9808 9.29935L16.5099 12.8522L15.5764 13.2551L12.7187 9.43108L13.5996 9.05045L15.5065 11.7018L15.022 8.43696L16.0461 7.99501L18.0787 10.6506L17.4477 7.39003L18.3143 7.01591L19.1189 11.7266L18.2057 12.1207Z" fill="#4888FF" fill-opacity="0.5"/>
</g>
<defs>
<clipPath id="clip0_1_203">
<rect width="24" height="24" fill="white"/>
</clipPath>
</defs>
</svg>
