<svg width="24" height="24" viewBox="0 0 24 24" fill="none" xmlns="http://www.w3.org/2000/svg">
<path d="M17.9693 0H6.03073C5.41841 0 4.92346 0.495781 4.92346 1.10727V22.8923C4.92346 23.5042 5.41885 24 6.03073 24H17.9693C18.5808 24 19.0766 23.5042 19.0766 22.8923V1.10727C19.077 0.495386 18.5808 0 17.9693 0ZM10.7767 1.30677H13.2226C13.3504 1.30677 13.4535 1.4099 13.4535 1.5377C13.4535 1.6655 13.3504 1.76863 13.2226 1.76863H10.7767C10.6497 1.76863 10.5457 1.6655 10.5457 1.5377C10.5457 1.4099 10.6497 1.30677 10.7767 1.30677ZM13.477 22.0302H10.5227C10.2805 22.0302 10.0839 21.834 10.0839 21.5918C10.0839 21.3496 10.2805 21.1534 10.5227 21.1534H13.4769C13.7191 21.1534 13.9149 21.3496 13.9149 21.5918C13.9149 21.8341 13.7196 22.0302 13.477 22.0302ZM17.6927 19.446H6.30737V3.75351H17.6927V19.446Z" fill="#4888FF" fill-opacity="0.5"/>
</svg>
