<svg width="24" height="24" viewBox="0 0 24 24" fill="none" xmlns="http://www.w3.org/2000/svg">
<g clip-path="url(#clip0_1_2465)">
<path fill-rule="evenodd" clip-rule="evenodd" d="M20.25 4.5C19.8353 4.5 19.5 4.16475 19.5 3.75C19.5 3.33525 19.8353 3 20.25 3C20.6647 3 21 3.33525 21 3.75C21 4.16475 20.6647 4.5 20.25 4.5ZM12 21C7.02975 21 3 16.971 3 12C3 7.02975 7.02975 3 12 3C16.9702 3 21 7.02975 21 12C21 16.971 16.9702 21 12 21ZM20.25 21C19.8353 21 19.5 20.6647 19.5 20.25C19.5 19.8353 19.8353 19.5 20.25 19.5C20.6647 19.5 21 19.8353 21 20.25C21 20.6647 20.6647 21 20.25 21ZM3.75 21C3.33525 21 3 20.6647 3 20.25C3 19.8353 3.33525 19.5 3.75 19.5C4.16475 19.5 4.5 19.8353 4.5 20.25C4.5 20.6647 4.16475 21 3.75 21ZM3.75 3C4.16475 3 4.5 3.33525 4.5 3.75C4.5 4.16475 4.16475 4.5 3.75 4.5C3.33525 4.5 3 4.16475 3 3.75C3 3.33525 3.33525 3 3.75 3ZM21 0H3C1.34325 0 0 1.34325 0 3V21C0 22.6567 1.34325 24 3 24H21C22.6567 24 24 22.6567 24 21V3C24 1.34325 22.6567 0 21 0ZM12 16.5C9.51525 16.5 7.5 14.4847 7.5 12C7.5 9.51525 9.51525 7.5 12 7.5C14.4847 7.5 16.5 9.51525 16.5 12C16.5 14.4847 14.4847 16.5 12 16.5ZM12 4.5C7.8585 4.5 4.5 7.8585 4.5 12C4.5 16.1423 7.8585 19.5 12 19.5C16.1415 19.5 19.5 16.1423 19.5 12C19.5 7.8585 16.1415 4.5 12 4.5ZM12 9C10.3433 9 9 10.3433 9 12C9 13.6567 10.3433 15 12 15C13.6567 15 15 13.6567 15 12C15 10.3433 13.6567 9 12 9Z" fill="#4888FF" fill-opacity="0.5"/>
</g>
<defs>
<clipPath id="clip0_1_2465">
<rect width="24" height="24" fill="white"/>
</clipPath>
</defs>
</svg>
