<svg width="24" height="24" viewBox="0 0 24 24" fill="none" xmlns="http://www.w3.org/2000/svg">
<path d="M18.0483 20.9873H15.4317V19.726H8.56852V20.9873H5.95196C5.5576 20.9873 5.23792 21.307 5.23792 21.7013C5.23792 22.0957 5.5576 22.4154 5.95196 22.4154H18.0483C18.4427 22.4154 18.7624 22.0957 18.7624 21.7013C18.7624 21.307 18.4427 20.9873 18.0483 20.9873Z" fill="#4888FF" fill-opacity="0.5"/>
<path d="M0 15.6536V17.5838C0 17.9781 0.319687 18.2978 0.714047 18.2978H23.286C23.6803 18.2978 24 17.9781 24 17.5838V15.6536H0Z" fill="#4888FF" fill-opacity="0.5"/>
<path d="M23.286 1.58459H0.714047C0.319687 1.58459 0 1.90433 0 2.29864V14.2254H24V2.29864C24 1.90433 23.6803 1.58459 23.286 1.58459Z" fill="#4888FF" fill-opacity="0.5"/>
</svg>
