<svg width="21" height="20" viewBox="0 0 21 20" fill="none" xmlns="http://www.w3.org/2000/svg">
<g clip-path="url(#clip0_2_1313)">
<path d="M16.3284 4.48151C17.7996 6.33942 17.6074 8.96866 17.6074 10.708H19.755C19.755 8.89389 19.79 8.43399 19.6179 7.66541C19.2364 5.95169 18.0659 4.71176 16.3284 4.48151Z" fill="#4888FF" fill-opacity="0.5"/>
<path d="M2.72456 10.708C2.72456 8.86536 2.69969 8.33313 2.8329 7.44492C2.98869 6.40396 3.34727 5.30472 4.00371 4.48196C2.44014 4.66888 1.13078 5.79407 0.714065 7.66495C0.541946 8.4343 0.577042 8.89313 0.577042 10.708H2.72456Z" fill="#4888FF" fill-opacity="0.5"/>
<path d="M4.02204 7.62329C3.90363 8.41354 3.92713 8.86841 3.92713 10.708H5.54639V10.0835C5.54639 8.70025 6.67203 7.57477 8.05524 7.57477H12.2767C13.6599 7.57477 14.7856 8.70025 14.7856 10.0835V10.708H16.4049C16.4049 8.87695 16.4283 8.41446 16.3099 7.62329C16.0985 6.20895 15.3589 4.4519 13.9758 4.4519C5.75696 4.4519 6.26371 4.43756 6.04505 4.48517C5.0543 4.69955 4.27945 5.90164 4.02204 7.62329Z" fill="#4888FF" fill-opacity="0.5"/>
<path d="M14.6424 13.1302H18.1309C18.4631 13.1302 18.7321 13.3997 18.7321 13.7315V18.0785C18.7321 18.4105 18.4629 18.6797 18.1309 18.6797H2.11847C1.78644 18.6797 1.51727 18.4105 1.51727 18.0785V13.7315C1.51727 13.3997 1.78629 13.1302 2.11847 13.1302H5.68948C5.52682 12.6599 5.54636 12.336 5.54636 11.9106H0.577026V19.3326C0.577026 19.6648 0.846191 19.9339 1.17822 19.9339H19.1537C19.4857 19.9339 19.755 19.6648 19.755 19.3326V11.9106H14.7856C14.7856 12.3322 14.8057 12.6581 14.6424 13.1302Z" fill="#4888FF" fill-opacity="0.5"/>
<path d="M2.71985 14.3327V17.4773H2.72458H17.5296V14.3327C15.9677 14.3327 16.912 14.3327 13.7826 14.3327C13.464 14.5821 13.0864 14.7595 12.6744 14.8398C12.6744 16.0767 11.9108 16.7024 11.0411 16.7024H9.21719C8.39795 16.7024 7.58344 16.1357 7.58344 14.8241C7.20029 14.738 6.84918 14.5673 6.55011 14.3327C6.02719 14.3327 3.00626 14.3327 2.71985 14.3327Z" fill="#4888FF" fill-opacity="0.5"/>
<path d="M12.2767 8.77716H8.05521C7.3353 8.77716 6.7489 9.36325 6.7489 10.0835V12.2769C6.7489 13.0148 7.33041 13.6853 8.1846 13.6853C8.51434 13.6853 8.78595 13.9529 8.78595 14.2867V15.069C8.78595 15.3067 8.97913 15.4999 9.21716 15.4999H11.041C11.2786 15.4999 11.4718 15.3067 11.4718 15.069C11.4718 14.6115 11.4718 14.7412 11.4718 14.2867C11.4718 14.0366 11.625 13.822 11.8423 13.7315C12.1076 13.6212 12.7653 13.8234 13.2945 13.1302C13.6215 12.7025 13.583 12.3201 13.583 11.9106C13.583 11.3007 13.583 10.692 13.583 10.0835C13.583 9.36325 12.9966 8.77716 12.2767 8.77716ZM9.15231 11.0992C9.15231 11.4325 8.88177 11.7004 8.55096 11.7004C8.22 11.7004 7.94977 11.4322 7.94977 11.0992C7.94977 10.8376 7.94977 10.6645 7.94977 10.3954C7.94977 10.0635 8.21909 9.79416 8.55096 9.79416C8.88284 9.79416 9.15231 10.0635 9.15231 10.3954V11.0992ZM10.7672 12.9675C10.7672 13.299 10.498 13.5687 10.166 13.5687C9.83408 13.5687 9.56476 13.2993 9.56476 12.9675C9.56476 12.2527 9.53012 12.1181 9.6998 11.9106C9.80966 11.7751 9.97797 11.6884 10.166 11.6884C10.4975 11.6884 10.7672 11.9579 10.7672 12.2897V12.9675ZM12.2703 11.3092C12.1853 11.5378 11.9653 11.7004 11.7068 11.7004C11.3757 11.7004 11.1054 11.4322 11.1054 11.0992C11.1054 10.8376 11.1054 10.6645 11.1054 10.3954C11.1054 10.0635 11.3749 9.79416 11.7068 9.79416C12.039 9.79416 12.308 10.0635 12.308 10.3954C12.308 11.1607 12.319 11.1794 12.2703 11.3092Z" fill="#4888FF" fill-opacity="0.5"/>
<path d="M19.4252 1.97052H19.0606V1.60599C19.0606 1.27396 18.7915 1.00479 18.4594 1.00479C18.1274 1.00479 17.8581 1.27396 17.8581 1.60599V1.97052H17.4937C17.1617 1.97052 16.8925 2.23969 16.8925 2.57172C16.8925 2.90375 17.1617 3.17291 17.4937 3.17291H17.8581V3.53745C17.8581 3.86948 18.1274 4.13864 18.4594 4.13864C18.7915 4.13864 19.0606 3.86948 19.0606 3.53745V3.17291H19.4252C19.7572 3.17291 20.0264 2.90375 20.0264 2.57172C20.0264 2.23969 19.7572 1.97052 19.4252 1.97052Z" fill="#4888FF" fill-opacity="0.5"/>
<path d="M13.8617 2.20734H14.2262V2.57172C14.2262 2.90375 14.4954 3.17291 14.8274 3.17291C15.1595 3.17291 15.4286 2.90375 15.4286 2.57172V2.20734H15.7932C16.1252 2.20734 16.3943 1.93802 16.3943 1.60599C16.3943 1.27396 16.1252 1.00479 15.7932 1.00479H15.4286V0.640259C15.4286 0.308228 15.1595 0.0390625 14.8274 0.0390625C14.4954 0.0390625 14.2262 0.308228 14.2262 0.640259V1.00479H13.8617C13.5297 1.00479 13.2605 1.27396 13.2605 1.60599C13.2605 1.93802 13.5297 2.20734 13.8617 2.20734Z" fill="#4888FF" fill-opacity="0.5"/>
<path d="M4.25964 2.20734H4.62418V2.57172C4.62418 2.90375 4.89334 3.17291 5.22537 3.17291C5.5574 3.17291 5.82657 2.90375 5.82657 2.57172V2.20734H6.1911C6.52313 2.20734 6.7923 1.93802 6.7923 1.60599C6.7923 1.27396 6.52313 1.00479 6.1911 1.00479H5.82657V0.640259C5.82657 0.308228 5.5574 0.0390625 5.22537 0.0390625C4.89334 0.0390625 4.62418 0.308228 4.62418 0.640259V1.00479H4.25964C3.92761 1.00479 3.65845 1.27396 3.65845 1.60599C3.65845 1.93802 3.92761 2.20734 4.25964 2.20734Z" fill="#4888FF" fill-opacity="0.5"/>
<path d="M0.992096 3.17291V3.53745C0.992096 3.86948 1.26126 4.13864 1.59329 4.13864C1.92532 4.13864 2.19464 3.86948 2.19464 3.53745V3.17291H2.55902C2.89105 3.17291 3.16022 2.90375 3.16022 2.57172C3.16022 2.23969 2.89105 1.97052 2.55902 1.97052H2.19464V1.60599C2.19464 1.27396 1.92532 1.00479 1.59329 1.00479C1.26126 1.00479 0.992096 1.27396 0.992096 1.60599V1.97052H0.627563C0.295532 1.97052 0.0263672 2.23969 0.0263672 2.57172C0.0263672 2.90375 0.295532 3.17291 0.627563 3.17291H0.992096Z" fill="#4888FF" fill-opacity="0.5"/>
</g>
<defs>
<clipPath id="clip0_2_1313">
<rect width="20" height="20" fill="white" transform="translate(0.0263672)"/>
</clipPath>
</defs>
</svg>
