<svg width="20" height="20" viewBox="0 0 20 20" fill="none" xmlns="http://www.w3.org/2000/svg">
<path d="M12.8977 15.5083C12.8977 14.4391 12.2244 13.8175 10.9335 12.7216C10.6419 12.4716 10.3269 12.2066 10.0019 11.9116C9.63104 12.2525 9.27854 12.5525 8.95521 12.8283C7.66687 13.9166 7.10271 14.4491 7.10271 15.5083C7.10271 16.2768 7.40798 17.0137 7.95137 17.5571C8.49475 18.1005 9.23174 18.4058 10.0002 18.4058C10.7687 18.4058 11.5057 18.1005 12.049 17.5571C12.5924 17.0137 12.8977 16.2768 12.8977 15.5083Z" fill="#4888FF" fill-opacity="0.5"/>
<path d="M13.6738 3.3625C12.6738 2.51333 11.6404 1.63583 10.5954 0.591667L10.0004 0L9.4171 0.5925C7.53877 2.4775 6.65044 5.3725 6.26544 7.10917C5.97001 6.65171 5.75077 6.14935 5.61627 5.62167L5.26044 4.2575L4.23294 5.22167C2.43377 6.91167 1.23294 8.5875 1.23294 11.2708C1.21564 13.2071 1.8459 15.0936 3.02359 16.6307C4.20128 18.1677 5.85885 19.2671 7.73294 19.7542C8.20383 19.8735 8.68336 19.9557 9.1671 20C8.11817 19.8045 7.17052 19.2486 6.48804 18.4284C5.80556 17.6082 5.43117 16.5753 5.4296 15.5083C5.4296 13.6333 6.56044 12.675 7.8696 11.5567C8.3371 11.1592 8.8696 10.7083 9.4071 10.1675L10.0004 9.5775L10.5904 10.1675C11.0704 10.6475 11.5504 11.0542 12.0146 11.4492C13.3279 12.5633 14.5679 13.6158 14.5679 15.5083C14.5666 16.5711 14.1952 17.6003 13.5176 18.419C12.84 19.2378 11.8984 19.795 10.8546 19.995C13.0217 19.7847 15.0328 18.7748 16.4957 17.1622C17.9586 15.5495 18.7684 13.4498 18.7671 11.2725C18.7671 7.6875 16.4063 5.68333 13.6738 3.3625Z" fill="#4888FF" fill-opacity="0.5"/>
</svg>
