<svg width="21" height="20" viewBox="0 0 21 20" fill="none" xmlns="http://www.w3.org/2000/svg">
<path d="M17.4572 6.63066C17.3649 6.41539 17.1531 6.27586 16.9189 6.27586H12.8461L15.5602 0.847979C15.6509 0.666414 15.6413 0.45063 15.5345 0.277894C15.4278 0.105118 15.2391 0 15.036 0L6.87701 0.000468755C6.63743 0.000468755 6.422 0.14633 6.33302 0.368793L2.56735 9.78222C2.49512 9.96273 2.51715 10.1673 2.62618 10.3283C2.73516 10.4893 2.91692 10.5858 3.11138 10.5858H7.89448L4.45022 19.1964C4.34585 19.4573 4.44135 19.7556 4.678 19.9073C4.77515 19.9696 4.88495 20 4.99402 20C5.15027 20 5.30508 19.9376 5.41906 19.8176L17.3437 7.26532C17.5049 7.09551 17.5497 6.8459 17.4572 6.63066Z" fill="#4888FF" fill-opacity="0.5"/>
<path d="M17.4572 6.63066C17.3649 6.41539 17.1531 6.27586 16.9189 6.27586H12.8461L15.5602 0.847979C15.651 0.666414 15.6413 0.45063 15.5345 0.277894C15.4278 0.105118 15.2391 0 15.036 0L10.0151 0.000273441V14.9797L17.3436 7.26544C17.505 7.09551 17.5497 6.8459 17.4572 6.63066Z" fill="#4888FF" fill-opacity="0.5"/>
</svg>
