<svg width="80" height="80" viewBox="0 0 80 80" fill="none" xmlns="http://www.w3.org/2000/svg">
<circle cx="40" cy="40" r="40" fill="#4888FF"/>
<circle cx="40" cy="40" r="35" fill="#4888FF"/>
<path d="M40.5 59.2917C42.9687 59.2984 45.4143 58.8154 47.6951 57.8706C49.9759 56.9258 52.0466 55.5379 53.7874 53.7874C54.1077 53.4671 54.2876 53.0326 54.2876 52.5796C54.2876 52.1266 54.1077 51.6922 53.7874 51.3718L42.9156 40.5L53.7874 29.6282C54.1077 29.3078 54.2876 28.8734 54.2876 28.4204C54.2876 27.9674 54.1077 27.5329 53.7874 27.2126C51.6023 25.0273 48.9119 23.4147 45.9546 22.5176C42.9974 21.6204 39.8645 21.4665 36.8335 22.0694C33.8025 22.6722 30.967 24.0133 28.5781 25.9738C26.1892 27.9343 24.3207 30.4537 23.1381 33.3088C21.9555 36.1639 21.4953 39.2666 21.7982 42.3421C22.1012 45.4176 23.1579 48.3709 24.8749 50.9404C26.5918 53.5099 28.916 55.6163 31.6415 57.073C34.367 58.5297 37.4096 59.2918 40.5 59.2917ZM40.5 25.125C43.9892 25.115 47.3765 26.3009 50.0974 28.4853L39.2922 39.2922C38.9719 39.6126 38.792 40.047 38.792 40.5C38.792 40.953 38.9719 41.3874 39.2922 41.7078L50.0974 52.5147C48.1784 54.047 45.9202 55.0974 43.512 55.5778C41.1037 56.0583 38.6154 55.9549 36.2552 55.2763C33.8951 54.5977 31.7319 53.3637 29.9466 51.6775C28.1613 49.9912 26.8059 47.9019 25.9938 45.5843C25.1817 43.2668 24.9366 40.7884 25.2789 38.3566C25.6213 35.9249 26.5411 33.6105 27.9615 31.6072C29.3819 29.6039 31.2615 27.97 33.4429 26.8422C35.6244 25.7144 38.0443 25.1256 40.5 25.125ZM59.2917 40.5C59.2917 41.1757 59.0913 41.8363 58.7159 42.3982C58.3404 42.9601 57.8068 43.398 57.1825 43.6566C56.5582 43.9152 55.8712 43.9828 55.2084 43.851C54.5457 43.7192 53.9369 43.3938 53.4591 42.9159C52.9812 42.4381 52.6558 41.8293 52.524 41.1666C52.3922 40.5038 52.4598 39.8168 52.7184 39.1925C52.977 38.5682 53.4149 38.0346 53.9768 37.6591C54.5387 37.2837 55.1992 37.0833 55.875 37.0833C56.7812 37.0833 57.6502 37.4433 58.2909 38.084C58.9317 38.7248 59.2917 39.5938 59.2917 40.5ZM33.6667 31.9583C33.6667 31.2826 33.8671 30.622 34.2425 30.0601C34.6179 29.4983 35.1515 29.0603 35.7758 28.8017C36.4001 28.5431 37.0871 28.4755 37.7499 28.6073C38.4127 28.7391 39.0215 29.0646 39.4993 29.5424C39.9771 30.0202 40.3025 30.629 40.4344 31.2918C40.5662 31.9545 40.4985 32.6415 40.2399 33.2658C39.9813 33.8901 39.5434 34.4238 38.9815 34.7992C38.4197 35.1746 37.7591 35.375 37.0833 35.375C36.1772 35.375 35.3081 35.015 34.6674 34.3743C34.0266 33.7335 33.6667 32.8645 33.6667 31.9583Z" fill="white"/>
</svg>
