<svg width="20" height="20" viewBox="0 0 20 20" fill="none" xmlns="http://www.w3.org/2000/svg">
<g clip-path="url(#clip0_2_1921)">
<path d="M16.9355 13.0621C15.5496 15.4562 12.9598 17.0703 10 17.0703C7.04023 17.0703 4.45039 15.4562 3.06445 13.0621C1.19805 14.5519 0 16.8457 0 19.4141C0 19.7375 0.2625 20 0.585938 20H19.4141C19.7375 20 20 19.7375 20 19.4141C20 16.8457 18.802 14.5519 16.9355 13.0621Z" fill="#4888FF" fill-opacity="0.5"/>
<path d="M4.50195 1.28906H2.1875C1.86406 1.28906 1.60156 1.55156 1.60156 1.875C1.60156 3.00664 2.0375 4.03867 2.75039 4.81133C3.00781 3.47461 3.62695 2.26523 4.50195 1.28906Z" fill="#4888FF" fill-opacity="0.5"/>
<path d="M18.3984 1.875C18.3984 1.55156 18.1359 1.28906 17.8125 1.28906H15.498C16.373 2.26523 16.9922 3.47461 17.2496 4.81133C17.9625 4.03867 18.3984 3.00664 18.3984 1.875Z" fill="#4888FF" fill-opacity="0.5"/>
<path d="M3.78906 7.30469H4.87969C5.09805 6.58242 5.76992 6.05469 6.5625 6.05469C7.35508 6.05469 8.02695 6.58242 8.24531 7.30469H11.7547C11.973 6.58242 12.6449 6.05469 13.4375 6.05469C14.2301 6.05469 14.902 6.58242 15.1203 7.30469H16.2109V6.21094C16.2109 2.78633 13.4246 0 10 0C6.57539 0 3.78906 2.78633 3.78906 6.21094V7.30469ZM11.25 3.16406H12.5C12.8234 3.16406 13.0859 3.42656 13.0859 3.75C13.0859 4.07344 12.8234 4.33594 12.5 4.33594H11.25C10.9266 4.33594 10.6641 4.07344 10.6641 3.75C10.6641 3.42656 10.9266 3.16406 11.25 3.16406ZM7.5 3.16406H8.75C9.07344 3.16406 9.33594 3.42656 9.33594 3.75C9.33594 4.07344 9.07344 4.33594 8.75 4.33594H7.5C7.17656 4.33594 6.91406 4.07344 6.91406 3.75C6.91406 3.42656 7.17656 3.16406 7.5 3.16406Z" fill="#4888FF" fill-opacity="0.5"/>
<path d="M6.5625 7.22656C6.23891 7.22656 5.97656 7.48891 5.97656 7.8125V8.47656H3.75C3.42641 8.47656 3.16406 8.73891 3.16406 9.0625C3.16406 12.8318 6.23066 15.8984 10 15.8984C13.7693 15.8984 16.8359 12.8318 16.8359 9.0625C16.8359 8.73891 16.5736 8.47656 16.25 8.47656H14.0234V7.8125C14.0234 7.48891 13.7611 7.22656 13.4375 7.22656C13.1139 7.22656 12.8516 7.48891 12.8516 7.8125V8.47656H7.14844V7.8125C7.14844 7.48891 6.88609 7.22656 6.5625 7.22656Z" fill="#4888FF" fill-opacity="0.5"/>
</g>
<defs>
<clipPath id="clip0_2_1921">
<rect width="20" height="20" fill="white"/>
</clipPath>
</defs>
</svg>
