<svg width="21" height="20" viewBox="0 0 21 20" fill="none" xmlns="http://www.w3.org/2000/svg">
<g clip-path="url(#clip0_2_1511)">
<path d="M11.7368 17.1407C11.8982 17.1368 12.036 17.0229 12.07 16.8649C12.0815 16.8071 12.0975 16.7511 12.1121 16.6943C12.1208 16.6603 12.1275 16.6254 12.1376 16.5921C12.1446 16.5675 12.1544 16.5443 12.1619 16.5207C12.3528 15.9229 12.7148 15.3941 13.2033 15H11.0893C11.0422 15.2185 11.0094 15.4353 10.984 15.6519C10.979 15.695 10.9743 15.7382 10.9705 15.7814C10.9494 15.9958 10.9348 16.21 10.9348 16.4285C10.9348 16.5582 10.9433 16.6832 10.9554 16.806C10.9665 16.9096 10.9825 17.0128 11.003 17.1158C11.0046 17.1246 11.0057 17.1339 11.0075 17.1428H11.7218C11.7282 17.1428 11.7322 17.1407 11.7368 17.1407Z" fill="#4888FF" fill-opacity="0.5"/>
<path d="M12.0465 2.03568C12.0572 1.95709 12.0679 1.88217 12.0857 1.8071C12.0929 1.76422 12.1072 1.7215 12.1179 1.67862C12.1358 1.61072 12.1536 1.54282 12.1786 1.47507C12.1919 1.4325 12.2075 1.39084 12.225 1.34995C12.2501 1.28571 12.2751 1.22147 12.3036 1.16074C12.3215 1.12137 12.3428 1.07864 12.3607 1.03928C12.3929 0.978546 12.4286 0.917816 12.4608 0.860748C12.4858 0.821381 12.5072 0.785675 12.5287 0.749969C12.5679 0.68924 12.6143 0.62851 12.6572 0.571442C12.6787 0.539246 12.7 0.510712 12.7251 0.478516C12.7832 0.406189 12.8452 0.337067 12.9108 0.271454C12.9251 0.257111 12.9358 0.24292 12.9465 0.232086C13.0243 0.153656 13.1065 0.0796509 13.1929 0.0106812L13.2036 0H3.07861C1.69785 0 0.578613 1.11923 0.578613 2.5C0.578613 3.88077 1.69785 5 3.07861 5H13.2036C12.4475 4.39026 12.0078 3.47137 12.0071 2.5C12.0071 2.38174 12.0143 2.26379 12.0287 2.14645C12.0322 2.11075 12.0393 2.07138 12.0465 2.03568ZM3.07861 1.42853C2.58957 1.42838 2.16217 1.75873 2.03934 2.23221C1.99997 2.38937 1.85867 2.49985 1.69647 2.5C1.58585 2.50015 1.48148 2.44919 1.41373 2.36176C1.34598 2.27448 1.32233 2.16064 1.3501 2.05353C1.5535 1.26526 2.26456 0.714417 3.07861 0.714264C3.27591 0.714264 3.43582 0.874176 3.43582 1.07147C3.43582 1.26862 3.27591 1.42853 3.07861 1.42853ZM5.57861 1.42853H4.50714C4.31 1.42853 4.15009 1.26862 4.15009 1.07147C4.15009 0.874176 4.31 0.714264 4.50714 0.714264H5.57861C5.77591 0.714264 5.93582 0.874176 5.93582 1.07147C5.93582 1.26862 5.77591 1.42853 5.57861 1.42853Z" fill="#4888FF" fill-opacity="0.5"/>
<path d="M17.5172 18.3757C17.7765 17.8333 17.92 16.9829 17.1321 16.0065C16.6794 15.4002 15.9774 15.0305 15.2214 15C15.14 15 15.0622 15.0136 14.9826 15.0211C14.9147 15.0279 14.8454 15.0282 14.7789 15.0403C14.729 15.0493 14.6826 15.0671 14.6339 15.0793C13.8615 15.2673 13.224 15.8107 12.9161 16.5436C12.9097 16.559 12.9001 16.5721 12.894 16.5875C12.8676 16.6557 12.8521 16.7303 12.8314 16.8018C12.8108 16.8732 12.7842 16.9403 12.7696 17.0139C12.6701 17.4901 12.2584 17.8369 11.7721 17.854C11.7561 17.854 11.7411 17.8583 11.725 17.8583H11.2379C11.5432 18.5072 12.039 19.0479 12.6593 19.4078L12.6672 19.4125C12.8206 19.5032 12.9797 19.5836 13.1436 19.6532C13.1657 19.6625 13.1883 19.67 13.2104 19.6785C13.34 19.7314 13.4739 19.7765 13.6104 19.8167C13.6567 19.8303 13.7028 19.845 13.7497 19.8572C13.9026 19.8967 14.0576 19.928 14.214 19.9507C14.2575 19.9571 14.3011 19.9614 14.3446 19.9667C14.517 19.9878 14.6905 19.9989 14.8643 20C15.9788 19.9835 16.9958 19.361 17.5172 18.3757Z" fill="#4888FF" fill-opacity="0.5"/>
<path d="M4.50714 20H12.2464C11.2694 19.4347 10.5748 18.4846 10.3322 17.3822C10.3178 17.3178 10.3036 17.2536 10.293 17.1893C10.2786 17.1107 10.2643 17.0285 10.2536 16.9464C10.2322 16.7746 10.2216 16.6017 10.2214 16.4285C10.2214 16.2357 10.2322 16.0464 10.2464 15.8536C10.2501 15.7893 10.2571 15.7214 10.2643 15.6572C10.2786 15.5357 10.293 15.4108 10.3143 15.2893C10.325 15.2107 10.3357 15.1286 10.35 15.0464C10.3822 14.8857 10.4179 14.7214 10.4608 14.5535C10.5215 14.3179 10.5893 14.0822 10.675 13.8464C10.4822 14.0321 10.325 14.2 10.2036 14.3358C10.2 14.3393 10.2 14.3428 10.1965 14.3428C10.1465 14.4 10.1001 14.4536 10.0607 14.5C10.0581 14.5053 10.0545 14.5102 10.05 14.5143C10.0143 14.5572 9.98215 14.5964 9.95712 14.6321L9.93927 14.65C9.91791 14.6822 9.89655 14.7072 9.8822 14.7285C9.87503 14.7357 9.87152 14.7429 9.86786 14.7464C9.85626 14.7624 9.84558 14.7792 9.83582 14.7964L9.82498 14.8071C9.82147 14.8143 9.81796 14.8178 9.81796 14.8215C9.81796 14.825 9.81079 14.8286 9.81079 14.8286C9.80713 14.8354 9.80225 14.8415 9.79645 14.8465C9.79019 14.8566 9.78302 14.8662 9.77509 14.875C9.76288 14.8889 9.74976 14.902 9.73572 14.9142C9.73221 14.9179 9.72504 14.9214 9.72153 14.9249C9.71405 14.9321 9.70566 14.9382 9.6965 14.9429C9.6785 14.9545 9.65942 14.9641 9.63928 14.9715C9.63577 14.9715 9.63577 14.975 9.63211 14.975C9.6286 14.975 9.62509 14.9786 9.62143 14.9786C9.61792 14.9786 9.61075 14.9821 9.60358 14.9857C9.57687 14.993 9.54926 14.9966 9.52148 14.9965C9.51797 14.9965 9.5108 15 9.50714 15H9.50363C9.49646 15 9.49646 14.9965 9.48929 14.9965C9.45511 14.9974 9.42108 14.9915 9.38934 14.9786C9.38568 14.9786 9.38568 14.975 9.38217 14.975H9.37866C9.33807 14.9611 9.30145 14.9377 9.27155 14.9071C9.26132 14.8994 9.25278 14.8897 9.24652 14.8785C9.2247 14.8566 9.20654 14.8312 9.19296 14.8036C9.18549 14.7899 9.17938 14.7755 9.17511 14.7607L9.16428 14.7285C9.15726 14.7214 9.15726 14.7107 9.15359 14.7C9.15009 14.6893 9.15726 14.6857 9.15359 14.6822C9.15726 14.6466 9.15833 14.6107 9.15726 14.575C9.32144 12.9959 9.85489 11.4777 10.7143 10.1428C12.1423 7.84271 14.3311 6.11526 16.9 5.26077C17.4178 4.4313 17.7016 3.47748 17.7214 2.5C17.7214 1.11923 16.6022 0 15.2214 0C13.8408 0 12.7214 1.11923 12.7214 2.5C12.7214 3.88077 13.8408 5 15.2214 5C15.4187 5 15.5786 5.15991 15.5786 5.35721C15.5774 5.47562 15.5188 5.58609 15.4214 5.65353C15.3625 5.69382 15.2928 5.71503 15.2214 5.71426H4.26071C3.9064 6.56723 3.47748 7.38708 2.97867 8.16422C2.76794 8.51791 2.55005 8.87863 2.33932 9.2572C1.30692 10.9897 0.710144 12.9469 0.599976 14.9608C0.585785 15.2036 0.578613 15.4572 0.578613 15.7143C0.578613 17.9178 2.48932 20 4.50714 20ZM3.08929 9.55719C3.11096 9.47052 3.16452 9.39529 3.23929 9.34647L3.93219 8.88214C4.28024 8.64975 4.73404 8.64975 5.08224 8.88214L5.40009 9.09286C5.5072 9.16794 5.65002 9.16794 5.75714 9.09286L6.07498 8.88214C6.42319 8.64975 6.87698 8.64975 7.22504 8.88214L7.54288 9.09286C7.65015 9.16794 7.79282 9.16794 7.90009 9.09286L8.21793 8.88214C8.56598 8.64975 9.01978 8.64975 9.36783 8.88214L10.0607 9.34647C10.2087 9.4426 10.2623 9.63379 10.1857 9.79279C10.1788 9.80911 10.1704 9.82452 10.1608 9.83932C10.0951 9.93912 9.98383 9.99939 9.86435 10C9.79416 10.0008 9.72534 9.97955 9.66797 9.93927L8.97141 9.47861C8.86429 9.40353 8.72162 9.40353 8.61435 9.47861L8.29651 9.68933C7.9483 9.92172 7.49466 9.92172 7.14645 9.68933L6.82861 9.47861C6.72134 9.40353 6.57867 9.40353 6.47141 9.47861L6.15356 9.68933C5.80551 9.92172 5.35172 9.92172 5.00366 9.68933L4.68582 9.47861C4.57855 9.40353 4.43588 9.40353 4.32861 9.47861L3.6322 9.93927C3.55377 9.99191 3.45749 10.011 3.36487 9.99222C3.27225 9.97345 3.19107 9.91837 3.13934 9.83932C3.08472 9.75601 3.06656 9.65408 3.08929 9.55719ZM2.16797 11.8465L2.86072 11.3821C3.20892 11.1497 3.66257 11.1497 4.01077 11.3821L4.32861 11.5929C4.43588 11.6679 4.57855 11.6679 4.68582 11.5929L5.00366 11.3821C5.35172 11.1497 5.80551 11.1497 6.15356 11.3821L6.47141 11.5929C6.57867 11.6679 6.72134 11.6679 6.82861 11.5929L7.14645 11.3821C7.49466 11.1497 7.9483 11.1497 8.29651 11.3821L8.98926 11.8465C9.11926 11.9337 9.17725 12.0956 9.13223 12.2456C9.08707 12.3956 8.94958 12.4988 8.79288 12.5C8.72269 12.5008 8.65402 12.4796 8.5965 12.4393L7.90009 11.9786C7.79282 11.9035 7.65015 11.9035 7.54288 11.9786L7.22504 12.1893C6.87698 12.4217 6.42319 12.4217 6.07498 12.1893L5.75714 11.9786C5.65002 11.9035 5.5072 11.9035 5.40009 11.9786L5.08224 12.1893C4.73404 12.4217 4.28024 12.4217 3.93219 12.1893L3.61435 11.9786C3.50708 11.9035 3.36441 11.9035 3.25714 11.9786L2.56073 12.4393C2.45514 12.5243 2.31064 12.5423 2.1875 12.4857C2.06436 12.429 1.98395 12.3076 1.97968 12.1721C1.97556 12.0366 2.04849 11.9106 2.16797 11.8465ZM1.45355 14.7035L2.14645 14.2393C2.49466 14.007 2.9483 14.007 3.29651 14.2393L3.61435 14.4501C3.72162 14.525 3.86429 14.525 3.97141 14.4501L4.2894 14.2393C4.63745 14.007 5.09125 14.007 5.4393 14.2393L5.75714 14.4501C5.86441 14.525 6.00708 14.525 6.11435 14.4501L6.43219 14.2393C6.78024 14.007 7.23404 14.007 7.58224 14.2393L8.27499 14.7035C8.30002 14.7197 8.32275 14.7389 8.3429 14.7607C8.43735 14.8654 8.46146 15.0159 8.40424 15.1447C8.34717 15.2736 8.2196 15.3568 8.07861 15.3572C8.00842 15.358 7.93976 15.3368 7.88223 15.2965L7.18582 14.8357C7.07855 14.7607 6.93588 14.7607 6.82861 14.8357L6.51077 15.0464C6.16257 15.2788 5.70892 15.2788 5.36072 15.0464L5.04288 14.8357C4.93561 14.7607 4.79294 14.7607 4.68582 14.8357L4.36783 15.0464C4.01978 15.2788 3.56598 15.2788 3.21793 15.0464L2.90009 14.8357C2.79282 14.7607 2.65015 14.7607 2.54288 14.8357L1.84647 15.2965C1.76804 15.3493 1.67175 15.3685 1.57913 15.3496C1.48651 15.3308 1.40518 15.2756 1.35361 15.1964C1.31485 15.1382 1.29379 15.0699 1.29288 15C1.29349 14.8805 1.35376 14.7693 1.45355 14.7035Z" fill="#4888FF" fill-opacity="0.5"/>
<path d="M10.1143 12.7357C11.4036 10.7571 14.2036 7.57858 19.7679 5.40359C13.7678 5.89996 11.15 10.1785 10.1143 12.7357Z" fill="#4888FF" fill-opacity="0.5"/>
<path d="M20.4965 5.89645C14.2929 8.18924 11.5143 11.7357 10.4286 13.5786C11.7729 12.3311 13.2621 11.2495 14.8643 10.3572C16.9645 9.17572 18.8653 7.67029 20.4965 5.89645Z" fill="#4888FF" fill-opacity="0.5"/>
</g>
<defs>
<clipPath id="clip0_2_1511">
<rect width="20" height="20" fill="white" transform="translate(0.539551)"/>
</clipPath>
</defs>
</svg>
