<svg width="40" height="40" viewBox="0 0 40 40" fill="none" xmlns="http://www.w3.org/2000/svg">
<rect width="40" height="40" rx="5" fill="#4888FF"/>
<path d="M29.7665 28.5891L24.7964 23.6191C26.1508 21.9626 26.8167 19.8489 26.6564 17.7152C26.4961 15.5815 25.5218 13.5911 23.9351 12.1556C22.3484 10.7201 20.2706 9.94937 18.1316 10.0029C15.9925 10.0563 13.9559 10.9299 12.4429 12.4429C10.9299 13.9559 10.0563 15.9926 10.0028 18.1316C9.94934 20.2706 10.7201 22.3484 12.1556 23.9351C13.591 25.5218 15.5815 26.4961 17.7152 26.6564C19.8489 26.8167 21.9626 26.1508 23.619 24.7964L28.5891 29.7665C28.7462 29.9182 28.9565 30.0021 29.1748 30.0002C29.3931 29.9983 29.602 29.9107 29.7563 29.7564C29.9107 29.602 29.9983 29.3931 30.0002 29.1748C30.0021 28.9565 29.9182 28.7462 29.7665 28.5891ZM18.3534 25.0146C17.0359 25.0146 15.748 24.6239 14.6526 23.892C13.5572 23.16 12.7034 22.1197 12.1992 20.9025C11.695 19.6853 11.5631 18.346 11.8202 17.0539C12.0772 15.7617 12.7116 14.5748 13.6432 13.6432C14.5748 12.7116 15.7617 12.0772 17.0538 11.8202C18.346 11.5632 19.6853 11.6951 20.9025 12.1992C22.1197 12.7034 23.16 13.5572 23.8919 14.6526C24.6239 15.7481 25.0146 17.0359 25.0146 18.3534C25.0126 20.1194 24.3101 21.8126 23.0613 23.0614C21.8126 24.3102 20.1194 25.0126 18.3534 25.0146Z" fill="white"/>
</svg>
