<svg width="16" height="16" viewBox="0 0 16 16" fill="none" xmlns="http://www.w3.org/2000/svg">
<g opacity="0.3">
<path d="M7.5 2C4.46721 2 2 4.46721 2 7.5C2 10.5328 4.46721 13 7.5 13C10.5328 13 13 10.5328 13 7.5C13 4.46721 10.5328 2 7.5 2ZM10.1157 10.3449C10.0732 10.3876 10.0228 10.4215 9.96714 10.4446C9.91153 10.4677 9.8519 10.4796 9.79167 10.4796C9.73144 10.4796 9.6718 10.4677 9.61619 10.4446C9.56058 10.4215 9.51009 10.3876 9.46762 10.3449L7.17596 8.05321C7.13331 8.01072 7.09949 7.96021 7.07645 7.9046C7.0534 7.84899 7.04158 7.78937 7.04167 7.72917V4.75C7.04167 4.62844 7.08996 4.51186 7.17591 4.42591C7.26186 4.33996 7.37844 4.29167 7.5 4.29167C7.62156 4.29167 7.73814 4.33996 7.82409 4.42591C7.91004 4.51186 7.95833 4.62844 7.95833 4.75V7.53942L10.1157 9.69679C10.1583 9.73932 10.1921 9.78983 10.2152 9.84543C10.2382 9.90104 10.2501 9.96064 10.2501 10.0208C10.2501 10.081 10.2382 10.1406 10.2152 10.1962C10.1921 10.2518 10.1583 10.3023 10.1157 10.3449Z" fill="#343A3F"/>
</g>
</svg>
